# File created by Blade
# Date/Time:  Wed Sep 24 19:25:39 2014
# Frame Rate: 120.000 fps
#------------------------------------------------------
:FULLY-SPECIFIED
:DEGREES
2920
root -16.198790 32.178027 -4.975738 13.873074 26.759656 -6.047146
Spine -19.053412 21.531904 7.781892
Head 11.772366 -7.979385 2.613884
LeftShoulder -18.249219 30.050262 6.619089
LeftArm 10.312405 24.155006 -73.775850
LeftForeArm 3.224110 -0.000000 23.916450
LeftHand -26.638768 -0.000000 -5.426019
LeftHandThumb1 -26.253704 0.000000 33.147579
RightShoulder -18.206352 12.094942 -30.052680
RightArm -14.548839 30.002411 51.910928
RightForeArm 4.895283 -0.000000 124.046762
RightHand -14.205397 -0.000000 1.560839
RightHandThumb1 -24.326973 -0.000000 -32.862282
LeftUpLeg -25.462381 -30.960733 20.198141
LeftLeg 113.796560 -0.000000 -0.000000
LeftFoot 38.982575 13.898217 -13.784026
LeftToeBase 25.790427 -0.000000 -0.000000
RightUpLeg -13.935351 -0.653873 14.388363
RightLeg -1.039581 -0.000000 0.000000
RightFoot -8.788104 -8.854998 -6.235773
RightToeBase -0.926580 -0.000000 0.000000
2921
root -16.184838 32.181272 -4.981603 14.046412 25.915714 -6.002066
Spine -19.135971 22.068722 7.459532
Head 11.858042 -7.695335 2.828020
LeftShoulder -18.447120 30.186117 6.602258
LeftArm 9.817976 24.099948 -74.001727
LeftForeArm 3.114245 -0.000000 23.193793
LeftHand -26.638543 -0.000000 -5.872382
LeftHandThumb1 -26.253704 0.000000 33.147579
RightShoulder -18.165687 12.175070 -29.959039
RightArm -14.407935 29.835556 52.125112
RightForeArm 4.813007 0.000000 124.022114
RightHand -14.190992 -0.000000 1.535271
RightHandThumb1 -24.326973 -0.000000 -32.862282
LeftUpLeg -25.575498 -30.840118 20.121955
LeftLeg 113.883674 -0.000000 -0.000000
LeftFoot 39.069692 13.969558 -13.833553
LeftToeBase 25.971235 -0.000000 -0.000000
RightUpLeg -13.917922 -0.572369 14.332241
RightLeg -1.161479 -0.000000 0.000000
RightFoot -8.706619 -8.314889 -6.383267
RightToeBase -1.003661 -0.000000 0.000000
2922
root -16.170861 32.186501 -4.989173 14.224180 25.055380 -5.954464
Spine -19.218452 22.567344 7.149348
Head 11.966301 -7.340050 3.033262
LeftShoulder -18.662865 30.328360 6.562852
LeftArm 9.351795 23.989458 -74.249043
LeftForeArm 3.026446 -0.000000 22.461023
LeftHand -26.680079 -0.000000 -6.441941
LeftHandThumb1 -26.253704 0.000000 33.147579
RightShoulder -18.080364 12.281867 -29.848715
RightArm -14.261568 29.660746 52.326450
RightForeArm 4.768360 -0.000000 124.003235
RightHand -14.216253 -0.000000 1.512248
RightHandThumb1 -24.326973 -0.000000 -32.862282
LeftUpLeg -25.655878 -30.627923 19.978169
LeftLeg 113.913427 -0.000000 -0.000000
LeftFoot 39.127126 14.168691 -14.016656
LeftToeBase 25.956294 -0.000000 -0.000000
RightUpLeg -13.899805 -0.427850 14.245061
RightLeg -1.291365 -0.000000 0.000000
RightFoot -8.600925 -7.681055 -6.301580
RightToeBase -1.162307 -0.000000 0.000000
2923
root -16.156512 32.190666 -4.997175 14.400564 24.205166 -5.892549
Spine -19.283780 22.981075 6.843262
Head 12.063953 -6.922681 3.263626
LeftShoulder -18.908246 30.428195 6.522492
LeftArm 8.794610 23.836069 -74.562421
LeftForeArm 2.993837 -0.000000 21.845496
LeftHand -26.748826 0.000000 -6.923163
LeftHandThumb1 -26.253704 0.000000 33.147579
RightShoulder -17.948232 12.408815 -29.723266
RightArm -14.095253 29.502165 52.543362
RightForeArm 4.755601 -0.000000 123.965771
RightHand -14.138796 -0.000000 1.588905
RightHandThumb1 -24.326973 -0.000000 -32.862282
LeftUpLeg -25.706561 -30.306558 19.790334
LeftLeg 113.898025 -0.000000 -0.000000
LeftFoot 39.184997 14.127605 -13.884071
LeftToeBase 25.960518 -0.000000 -0.000000
RightUpLeg -13.923270 -0.307790 14.150867
RightLeg -1.333329 -0.000000 0.000000
RightFoot -8.549551 -7.132331 -6.393621
RightToeBase -1.237069 -0.000000 0.000000
